ffmpeg started on 2025-06-27 at 10:15:12
Report written to "D:\Convert\FFMetrics\reports\ssim_report-6.txt"
Log level: 32
Command line:
ffmpeg -hide_banner -nostdin -i "G:\\\xc0\xed\xe8\xec\xe5\\[\xd2\xee\xef-4]\\\xd2\xee\xea\xe8\xe9\xf1\xea\xe8\xe9 \xc3\xf3\xeb\xfc\\\xd2\xc2-4\\Tokyo_Ghoul_Re_[09]_[AniLibria_TV]_[HDTVRip_720p]_HEVC.mkv" -i "G:\\\xc0\xed\xe8\xec\xe5\\[\xd2\xee\xef-4]\\\xd2\xee\xea\xe8\xe9\xf1\xea\xe8\xe9 \xc3\xf3\xeb\xfc\\\xd2\xc2-4\\Tokyo_Ghoul_Re_[09]_[AniLibria_TV]_[HDTVRip_720p].mkv" -lavfi "[0:v]settb=AVTB,setpts=PTS-STARTPTS,format=pix_fmts=yuv420p10,fps=24000/1001,scale=1280:720:flags=bicubic[main];[1:v]settb=AVTB,setpts=PTS-STARTPTS,format=pix_fmts=yuv420p,fps=24000/1001,scale=1280:720:flags=bicubic[ref];[main][ref]ssim=eof_action=endall:stats_file='D\\:/Convert/FFMetrics/logs/ssim_logfile-6.txt'" -f null -
Input #0, matroska,webm, from 'G:\Аниме\[Топ-4]\Токийский Гуль\ТВ-4\Tokyo_Ghoul_Re_[09]_[AniLibria_TV]_[HDTVRip_720p]_HEVC.mkv':
  Metadata:
    ENCODER         : Lavf61.7.100
  Duration: 00:24:30.04, start: -0.021000, bitrate: 840 kb/s
  Stream #0:0(jpn): Video: hevc (Main 10), yuv420p10le(tv, bt709, progressive), 1280x720 [SAR 1:1 DAR 16:9], 23.98 fps, 23.98 tbr, 1k tbn (default)
      Metadata:
        ENCODER         : Lavc61.19.100 libx265
        BPS             : 501131
        DURATION        : 00:24:29.968708333
        NUMBER_OF_FRAMES: 35244
        NUMBER_OF_BYTES : 92080972
        _STATISTICS_WRITING_APP: mkvpropedit v66.0.0 ('Josie') 64-bit
        _STATISTICS_WRITING_DATE_UTC: 2025-06-26 14:26:10
        _STATISTICS_TAGS: BPS DURATION NUMBER_OF_FRAMES NUMBER_OF_BYTES
  Stream #0:1(rus): Audio: aac (LC), 48000 Hz, stereo, fltp (default) (forced)
      Metadata:
        title           : Lupin, Silv & MyAska
        ENCODER         : Lavc61.19.100 aac
        BPS             : 193788
        DURATION        : 00:24:30.015000000
        NUMBER_OF_FRAMES: 68908
        NUMBER_OF_BYTES : 35608999
        _STATISTICS_WRITING_APP: mkvpropedit v66.0.0 ('Josie') 64-bit
        _STATISTICS_WRITING_DATE_UTC: 2025-06-26 14:26:10
        _STATISTICS_TAGS: BPS DURATION NUMBER_OF_FRAMES NUMBER_OF_BYTES
  Stream #0:2(rus): Subtitle: ass (ssa) (default) (forced)
      Metadata:
        title           : Надписи
        BPS             : 63959
        DURATION        : 00:23:50.140000000
        NUMBER_OF_FRAMES: 38633
        NUMBER_OF_BYTES : 11433908
        _STATISTICS_WRITING_APP: mkvpropedit v66.0.0 ('Josie') 64-bit
        _STATISTICS_WRITING_DATE_UTC: 2025-06-26 14:26:10
        _STATISTICS_TAGS: BPS DURATION NUMBER_OF_FRAMES NUMBER_OF_BYTES
  Stream #0:3(rus): Subtitle: ass (ssa)
      Metadata:
        title           : Субтитры
        BPS             : 62973
        DURATION        : 00:24:15.730000000
        NUMBER_OF_FRAMES: 38994
        NUMBER_OF_BYTES : 11459021
        _STATISTICS_WRITING_APP: mkvpropedit v66.0.0 ('Josie') 64-bit
        _STATISTICS_WRITING_DATE_UTC: 2025-06-26 14:26:10
        _STATISTICS_TAGS: BPS DURATION NUMBER_OF_FRAMES NUMBER_OF_BYTES
Input #1, matroska,webm, from 'G:\Аниме\[Топ-4]\Токийский Гуль\ТВ-4\Tokyo_Ghoul_Re_[09]_[AniLibria_TV]_[HDTVRip_720p].mkv':
  Metadata:
    encoder         : libebml v1.4.2 + libmatroska v1.6.4
    creation_time   : 2024-12-27T09:46:32.000000Z
  Duration: 00:24:30.02, start: 0.000000, bitrate: 2202 kb/s
  Stream #1:0(jpn): Video: h264 (Main), yuv420p(tv, bt709, progressive), 1280x720, SAR 1:1 DAR 16:9, 23.98 fps, 23.98 tbr, 1k tbn (default)
      Metadata:
        BPS             : 1853668
        DURATION        : 00:24:29.969000000
        NUMBER_OF_FRAMES: 35244
        NUMBER_OF_BYTES : 340604322
        _STATISTICS_WRITING_APP: mkvmerge v66.0.0 ('Josie') 64-bit
        _STATISTICS_WRITING_DATE_UTC: 2024-12-27 09:46:32
        _STATISTICS_TAGS: BPS DURATION NUMBER_OF_FRAMES NUMBER_OF_BYTES
  Stream #1:1(rus): Audio: aac (LC), 48000 Hz, stereo, fltp (default) (forced)
      Metadata:
        title           : Lupin, Silv & MyAska
        BPS             : 192092
        DURATION        : 00:24:30.015000000
        NUMBER_OF_FRAMES: 68907
        NUMBER_OF_BYTES : 35297268
        _STATISTICS_WRITING_APP: mkvmerge v66.0.0 ('Josie') 64-bit
        _STATISTICS_WRITING_DATE_UTC: 2024-12-27 09:46:32
        _STATISTICS_TAGS: BPS DURATION NUMBER_OF_FRAMES NUMBER_OF_BYTES
  Stream #1:2(rus): Subtitle: ass (ssa) (default) (forced)
      Metadata:
        title           : Надписи
        BPS             : 63959
        DURATION        : 00:23:50.140000000
        NUMBER_OF_FRAMES: 38633
        NUMBER_OF_BYTES : 11433908
        _STATISTICS_WRITING_APP: mkvmerge v66.0.0 ('Josie') 64-bit
        _STATISTICS_WRITING_DATE_UTC: 2024-12-27 09:46:32
        _STATISTICS_TAGS: BPS DURATION NUMBER_OF_FRAMES NUMBER_OF_BYTES
  Stream #1:3(rus): Subtitle: ass (ssa)
      Metadata:
        title           : Субтитры
        BPS             : 62973
        DURATION        : 00:24:15.730000000
        NUMBER_OF_FRAMES: 38994
        NUMBER_OF_BYTES : 11459021
        _STATISTICS_WRITING_APP: mkvmerge v66.0.0 ('Josie') 64-bit
        _STATISTICS_WRITING_DATE_UTC: 2024-12-27 09:46:32
        _STATISTICS_TAGS: BPS DURATION NUMBER_OF_FRAMES NUMBER_OF_BYTES
  Stream #1:4: Attachment: ttf
      Metadata:
        filename        : OpenSanA.ttf
        mimetype        : application/x-truetype-font
  Stream #1:5: Attachment: ttf
      Metadata:
        filename        : REDOCTOB.otf
        mimetype        : application/x-truetype-font
  Stream #1:6: Attachment: ttf
      Metadata:
        filename        : simsun_0.ttc
        mimetype        : application/x-truetype-font
  Stream #1:7: Attachment: ttf
      Metadata:
        filename        : Snowstorm.ttf
        mimetype        : application/x-truetype-font
  Stream #1:8: Attachment: ttf
      Metadata:
        filename        : TEMPSITC.TTF
        mimetype        : application/x-truetype-font
  Stream #1:9: Attachment: otf
      Metadata:
        filename        : TrajanPro3-Bold.otf
        mimetype        : application/vnd.ms-opentype
  Stream #1:10: Attachment: otf
      Metadata:
        filename        : TrajanPro3-Regular.otf
        mimetype        : application/vnd.ms-opentype
  Stream #1:11: Attachment: ttf
      Metadata:
        filename        : v_HolyMackerelli_v1.9.ttf
        mimetype        : application/x-truetype-font
  Stream #1:12: Attachment: ttf
      Metadata:
        filename        : v_StraightJacketBB_v1.1.ttf
        mimetype        : application/x-truetype-font
  Stream #1:13: Attachment: ttf
      Metadata:
        filename        : XENI.TTF
        mimetype        : application/x-truetype-font
  Stream #1:14: Attachment: ttf
      Metadata:
        filename        : 10352__0.ttf
        mimetype        : application/x-truetype-font
  Stream #1:15: Attachment: ttf
      Metadata:
        filename        : Aero Matics Display Bold Italic.ttf
        mimetype        : application/x-truetype-font
  Stream #1:16: Attachment: ttf
      Metadata:
        filename        : Aero Matics Display Bold.ttf
        mimetype        : application/x-truetype-font
  Stream #1:17: Attachment: ttf
      Metadata:
        filename        : Aero Matics Display Italic.ttf
        mimetype        : application/x-truetype-font
  Stream #1:18: Attachment: ttf
      Metadata:
        filename        : Aero Matics Display Light Italic.ttf
        mimetype        : application/x-truetype-font
  Stream #1:19: Attachment: ttf
      Metadata:
        filename        : Aero Matics Display Light.ttf
        mimetype        : application/x-truetype-font
  Stream #1:20: Attachment: ttf
      Metadata:
        filename        : Aero_Matics_Display_Regular.ttf
        mimetype        : application/x-truetype-font
  Stream #1:21: Attachment: ttf
      Metadata:
        filename        : BenchNine-Regular.ttf
        mimetype        : application/x-truetype-font
Stream mapping:
  Stream #0:0 (hevc) -> settb:default
  Stream #1:0 (h264) -> settb:default
  ssim:default -> Stream #0:0 (wrapped_avframe)
  Stream #0:1 -> #0:1 (aac (native) -> pcm_s16le (native))
Output #0, null, to 'pipe:':
  Metadata:
    encoder         : Lavf61.7.100
  Stream #0:0: Video: wrapped_avframe, yuv420p10le(tv, bt709, progressive), 1280x720 [SAR 1:1 DAR 16:9], q=2-31, 200 kb/s, 23.98 fps, 23.98 tbn
      Metadata:
        encoder         : Lavc61.19.100 wrapped_avframe
  Stream #0:1(rus): Audio: pcm_s16le, 48000 Hz, stereo, s16, 1536 kb/s (default) (forced)
      Metadata:
        title           : Lupin, Silv & MyAska
        _STATISTICS_TAGS: BPS DURATION NUMBER_OF_FRAMES NUMBER_OF_BYTES
        BPS             : 193788
        DURATION        : 00:24:30.015000000
        NUMBER_OF_FRAMES: 68908
        NUMBER_OF_BYTES : 35608999
        _STATISTICS_WRITING_APP: mkvpropedit v66.0.0 ('Josie') 64-bit
        _STATISTICS_WRITING_DATE_UTC: 2025-06-26 14:26:10
        encoder         : Lavc61.19.100 pcm_s16le
frame=  322 fps=0.0 q=-0.0 size=N/A time=00:00:13.43 bitrate=N/A speed=25.9x    frame=  732 fps=709 q=-0.0 size=N/A time=00:00:30.53 bitrate=N/A speed=29.6x    frame= 1089 fps=705 q=-0.0 size=N/A time=00:00:45.42 bitrate=N/A speed=29.4x    frame= 1417 fps=686 q=-0.0 size=N/A time=00:00:59.10 bitrate=N/A speed=28.6x    frame= 1817 fps=703 q=-0.0 size=N/A time=00:01:15.78 bitrate=N/A speed=29.3x    frame= 2116 fps=685 q=-0.0 size=N/A time=00:01:28.25 bitrate=N/A speed=28.6x    frame= 2512 fps=697 q=-0.0 size=N/A time=00:01:44.77 bitrate=N/A speed=29.1x    frame= 2803 fps=678 q=-0.0 size=N/A time=00:01:56.90 bitrate=N/A speed=28.3x    frame= 3281 fps=706 q=-0.0 size=N/A time=00:02:16.84 bitrate=N/A speed=29.5x    frame= 3699 fps=717 q=-0.0 size=N/A time=00:02:34.27 bitrate=N/A speed=29.9x    frame= 4093 fps=721 q=-0.0 size=N/A time=00:02:50.71 bitrate=N/A speed=30.1x    frame= 4529 fps=732 q=-0.0 size=N/A time=00:03:08.89 bitrate=N/A speed=30.5x    frame= 5029 fps=750 q=-0.0 size=N/A time=00:03:29.75 bitrate=N/A speed=31.3x    frame= 5577 fps=773 q=-0.0 size=N/A time=00:03:52.60 bitrate=N/A speed=32.2x    frame= 6100 fps=789 q=-0.0 size=N/A time=00:04:14.42 bitrate=N/A speed=32.9x    frame= 6717 fps=814 q=-0.0 size=N/A time=00:04:40.15 bitrate=N/A speed=33.9x    frame= 7359 fps=839 q=-0.0 size=N/A time=00:05:06.93 bitrate=N/A speed=  35x    frame= 7936 fps=855 q=-0.0 size=N/A time=00:05:30.99 bitrate=N/A speed=35.7x    frame= 8571 fps=875 q=-0.0 size=N/A time=00:05:57.48 bitrate=N/A speed=36.5x    frame= 9154 fps=887 q=-0.0 size=N/A time=00:06:21.79 bitrate=N/A speed=  37x    frame= 9690 fps=895 q=-0.0 size=N/A time=00:06:44.15 bitrate=N/A speed=37.3x    frame=10193 fps=898 q=-0.0 size=N/A time=00:07:05.13 bitrate=N/A speed=37.5x    frame=10671 fps=900 q=-0.0 size=N/A time=00:07:25.06 bitrate=N/A speed=37.5x    frame=11106 fps=897 q=-0.0 size=N/A time=00:07:43.21 bitrate=N/A speed=37.4x    frame=11509 fps=893 q=-0.0 size=N/A time=00:08:00.02 bitrate=N/A speed=37.2x    frame=12057 fps=899 q=-0.0 size=N/A time=00:08:22.87 bitrate=N/A speed=37.5x    frame=12635 fps=908 q=-0.0 size=N/A time=00:08:46.98 bitrate=N/A speed=37.9x    frame=13180 fps=913 q=-0.0 size=N/A time=00:09:09.71 bitrate=N/A speed=38.1x    frame=13687 fps=915 q=-0.0 size=N/A time=00:09:30.86 bitrate=N/A speed=38.2x    frame=14219 fps=919 q=-0.0 size=N/A time=00:09:53.05 bitrate=N/A speed=38.3x    frame=14794 fps=926 q=-0.0 size=N/A time=00:10:17.03 bitrate=N/A speed=38.6x    frame=15299 fps=927 q=-0.0 size=N/A time=00:10:38.09 bitrate=N/A speed=38.7x    frame=15774 fps=927 q=-0.0 size=N/A time=00:10:57.90 bitrate=N/A speed=38.7x    frame=16325 fps=931 q=-0.0 size=N/A time=00:11:20.88 bitrate=N/A speed=38.8x    frame=16843 fps=933 q=-0.0 size=N/A time=00:11:42.49 bitrate=N/A speed=38.9x    frame=17409 fps=938 q=-0.0 size=N/A time=00:12:06.10 bitrate=N/A speed=39.1x    frame=17815 fps=934 q=-0.0 size=N/A time=00:12:23.03 bitrate=N/A speed=38.9x    frame=18306 fps=934 q=-0.0 size=N/A time=00:12:43.51 bitrate=N/A speed=  39x    frame=18782 fps=934 q=-0.0 size=N/A time=00:13:03.36 bitrate=N/A speed=  39x    frame=19353 fps=938 q=-0.0 size=N/A time=00:13:27.18 bitrate=N/A speed=39.1x    frame=19879 fps=940 q=-0.0 size=N/A time=00:13:49.11 bitrate=N/A speed=39.2x    frame=20387 fps=942 q=-0.0 size=N/A time=00:14:10.30 bitrate=N/A speed=39.3x    frame=20850 fps=940 q=-0.0 size=N/A time=00:14:29.61 bitrate=N/A speed=39.2x    frame=21315 fps=940 q=-0.0 size=N/A time=00:14:49.01 bitrate=N/A speed=39.2x    frame=21713 fps=936 q=-0.0 size=N/A time=00:15:05.61 bitrate=N/A speed=  39x    frame=22300 fps=940 q=-0.0 size=N/A time=00:15:30.09 bitrate=N/A speed=39.2x    frame=22815 fps=942 q=-0.0 size=N/A time=00:15:51.57 bitrate=N/A speed=39.3x    frame=23384 fps=945 q=-0.0 size=N/A time=00:16:15.30 bitrate=N/A speed=39.4x    frame=23869 fps=945 q=-0.0 size=N/A time=00:16:35.53 bitrate=N/A speed=39.4x    frame=24318 fps=943 q=-0.0 size=N/A time=00:16:54.26 bitrate=N/A speed=39.3x    frame=24580 fps=935 q=-0.0 size=N/A time=00:17:05.19 bitrate=N/A speed=  39x    frame=25075 fps=935 q=-0.0 size=N/A time=00:17:25.83 bitrate=N/A speed=  39x    frame=25585 fps=936 q=-0.0 size=N/A time=00:17:47.10 bitrate=N/A speed=  39x    frame=26021 fps=934 q=-0.0 size=N/A time=00:18:05.29 bitrate=N/A speed=  39x    frame=26455 fps=933 q=-0.0 size=N/A time=00:18:23.39 bitrate=N/A speed=38.9x    frame=26885 fps=931 q=-0.0 size=N/A time=00:18:41.32 bitrate=N/A speed=38.8x    frame=27391 fps=932 q=-0.0 size=N/A time=00:19:02.43 bitrate=N/A speed=38.9x    frame=27654 fps=924 q=-0.0 size=N/A time=00:19:13.40 bitrate=N/A speed=38.6x    frame=28081 fps=923 q=-0.0 size=N/A time=00:19:31.21 bitrate=N/A speed=38.5x    frame=28452 fps=920 q=-0.0 size=N/A time=00:19:46.68 bitrate=N/A speed=38.4x    frame=28858 fps=918 q=-0.0 size=N/A time=00:20:03.61 bitrate=N/A speed=38.3x    frame=29435 fps=921 q=-0.0 size=N/A time=00:20:27.68 bitrate=N/A speed=38.4x    frame=29943 fps=922 q=-0.0 size=N/A time=00:20:48.87 bitrate=N/A speed=38.4x    frame=30504 fps=925 q=-0.0 size=N/A time=00:21:12.27 bitrate=N/A speed=38.6x    frame=31016 fps=926 q=-0.0 size=N/A time=00:21:33.62 bitrate=N/A speed=38.6x    frame=31579 fps=928 q=-0.0 size=N/A time=00:21:57.10 bitrate=N/A speed=38.7x    frame=32152 fps=931 q=-0.0 size=N/A time=00:22:21.00 bitrate=N/A speed=38.8x    frame=32613 fps=930 q=-0.0 size=N/A time=00:22:40.23 bitrate=N/A speed=38.8x    frame=33010 fps=927 q=-0.0 size=N/A time=00:22:56.79 bitrate=N/A speed=38.7x    frame=33437 fps=926 q=-0.0 size=N/A time=00:23:14.60 bitrate=N/A speed=38.6x    frame=33856 fps=924 q=-0.0 size=N/A time=00:23:32.07 bitrate=N/A speed=38.5x    frame=34222 fps=922 q=-0.0 size=N/A time=00:23:47.34 bitrate=N/A speed=38.4x    frame=34746 fps=923 q=-0.0 size=N/A time=00:24:09.19 bitrate=N/A speed=38.5x    [Parsed_ssim_10 @ 000002153abfd2c0] SSIM Y:0.990497 (20.221380) U:0.993235 (21.697091) V:0.993355 (21.774800) All:0.991430 (20.669951)
[out#0/null @ 0000021539eaee40] video:15144KiB audio:275632KiB subtitle:0KiB other streams:0KiB global headers:0KiB muxing overhead: unknown
frame=35244 fps=925 q=-0.0 Lsize=N/A time=00:24:29.96 bitrate=N/A speed=38.6x    
